<?xml version="1.0" encoding="UTF-8" standalone="no"?>
<!-- Created with Inkscape (http://www.inkscape.org/) -->

<svg
   xmlns:osb="http://www.openswatchbook.org/uri/2009/osb"
   xmlns:dc="http://purl.org/dc/elements/1.1/"
   xmlns:cc="http://creativecommons.org/ns#"
   xmlns:rdf="http://www.w3.org/1999/02/22-rdf-syntax-ns#"
   xmlns:svg="http://www.w3.org/2000/svg"
   xmlns="http://www.w3.org/2000/svg"
   xmlns:sodipodi="http://sodipodi.sourceforge.net/DTD/sodipodi-0.dtd"
   xmlns:inkscape="http://www.inkscape.org/namespaces/inkscape"
   id="svg2"
   version="1.1"
   inkscape:version="0.92.0 r"
   width="41.866611mm"
   height="35.201523mm"
   viewBox="0 0 148.34627 124.72973"
   sodipodi:docname="fisabio_desigualdades.svg">
  <title
     id="title3345">logo_desigualdades</title>
  <metadata
     id="metadata8">
    <rdf:RDF>
      <cc:Work
         rdf:about="">
        <dc:format>image/svg+xml</dc:format>
        <dc:type
           rdf:resource="http://purl.org/dc/dcmitype/StillImage" />
        <dc:title>logo_desigualdades</dc:title>
        <dc:date>2017-01-17</dc:date>
        <dc:creator>
          <cc:Agent>
            <dc:title>Carlos Vergara-Hernández</dc:title>
          </cc:Agent>
        </dc:creator>
        <dc:rights>
          <cc:Agent>
            <dc:title />
          </cc:Agent>
        </dc:rights>
        <dc:source>FISABIO</dc:source>
        <cc:license
           rdf:resource="http://creativecommons.org/licenses/by/3.0/" />
      </cc:Work>
      <cc:License
         rdf:about="http://creativecommons.org/licenses/by/3.0/">
        <cc:permits
           rdf:resource="http://creativecommons.org/ns#Reproduction" />
        <cc:permits
           rdf:resource="http://creativecommons.org/ns#Distribution" />
        <cc:requires
           rdf:resource="http://creativecommons.org/ns#Notice" />
        <cc:requires
           rdf:resource="http://creativecommons.org/ns#Attribution" />
        <cc:permits
           rdf:resource="http://creativecommons.org/ns#DerivativeWorks" />
      </cc:License>
    </rdf:RDF>
  </metadata>
  <defs
     id="defs6">
    <linearGradient
       id="linearGradient5924"
       osb:paint="solid">
      <stop
         style="stop-color:#a3db00;stop-opacity:1;"
         offset="0"
         id="stop5926" />
    </linearGradient>
    <filter
       inkscape:collect="always"
       style="color-interpolation-filters:sRGB"
       id="filter4312"
       x="-0.065162517"
       width="1.130325"
       y="-0.1181553"
       height="1.2363106">
      <feGaussianBlur
         inkscape:collect="always"
         stdDeviation="7.2461638"
         id="feGaussianBlur4314" />
    </filter>
  </defs>
  <sodipodi:namedview
     pagecolor="#ffffff"
     bordercolor="#666666"
     borderopacity="0"
     objecttolerance="10"
     gridtolerance="10"
     guidetolerance="10"
     inkscape:pageopacity="1"
     inkscape:pageshadow="2"
     inkscape:window-width="1920"
     inkscape:window-height="1056"
     id="namedview4"
     showgrid="true"
     inkscape:snap-global="false"
     inkscape:zoom="4"
     inkscape:cx="53.683208"
     inkscape:cy="55.936673"
     inkscape:window-x="1366"
     inkscape:window-y="0"
     inkscape:window-maximized="1"
     inkscape:current-layer="svg2"
     units="mm"
     width="126mm"
     fit-margin-top="0"
     fit-margin-left="0"
     fit-margin-right="0"
     fit-margin-bottom="0"
     inkscape:measure-start="77.9585,11.1369"
     inkscape:measure-end="77.605,0.176777">
    <inkscape:grid
       type="xygrid"
       id="grid4509"
       originx="-207.90801"
       originy="-38.667703" />
  </sodipodi:namedview>
  <rect
     style="fill:none;fill-opacity:0.94444442;filter:url(#filter4312)"
     id="rect4144"
     width="266.19458"
     height="146.70383"
     x="156.29422"
     y="21.071884"
     ry="27.639631"
     transform="matrix(0.99999737,-0.00229498,0.00748511,0.99997199,-207.90783,-24.116552)"
     clip-path="none" />
  <path
     style="fill:#ffffff;fill-opacity:1;stroke:#094d97;stroke-width:2.4499402;stroke-linecap:butt;stroke-linejoin:bevel;stroke-miterlimit:4;stroke-dasharray:none;stroke-opacity:0.95294118"
     d="m 76.377161,12.205916 c -6.00124,-9.5e-5 -10.86622,4.379849 -10.86611,9.782736 8.4e-4,5.402283 4.86555,9.781273 10.86611,9.781178 0.25211,1.11e-4 2.56451,-0.63399 1.73832,-0.246657 -1.99517,0.935373 -3.07469,3.908044 -3.07977,5.977296 -1.1e-4,5.402895 4.86487,9.782822 10.8661,9.782727 6.00124,1.03e-4 10.86623,-4.379832 10.86612,-9.782727 -8.4e-4,-5.40229 -4.58676,-9.588921 -10.58733,-9.588818 -1.19096,0.09971 -2.80376,0.97473 -1.717,0.394037 2.62318,-1.401665 2.77524,-4.243407 2.77967,-6.317036 1.1e-4,-5.402895 -4.86488,-9.782839 -10.86611,-9.782736 z m 3.01745,34.202329 c -6.00124,-9.6e-5 -10.86622,4.379848 -10.86611,9.782735 -1.1e-4,5.40289 4.86488,9.78283 10.86611,9.78273 1.33804,2e-5 2.92302,0.1839 3.91285,-0.65621 1.07324,-0.9109 -0.39602,1.71389 -0.40014,2.589182 -1.1e-4,5.402893 4.86488,9.782823 10.86611,9.782733 6.001238,1e-4 10.866219,-4.37984 10.866109,-9.782733 1.1e-4,-5.402902 -4.864871,-9.782842 -10.866109,-9.782742 -1.33814,4.7e-4 -2.91792,1.44381 -4.13588,0.93857 -0.85107,-0.35305 0.61921,-1.99572 0.62317,-2.87153 1.1e-4,-5.402895 -4.86487,-9.782839 -10.86611,-9.782735 z m -4.98536,22.835687 c -6.00124,-9e-5 -10.86621,4.379843 -10.86611,9.782743 0.003,1.03642 0.51839,2.73595 -0.10003,1.87401 -2.14549,-2.99036 -4.90327,-3.90804 -8.87033,-3.91247 -6.00124,-1e-4 -10.86622,4.37984 -10.86611,9.78273 -1.1e-4,5.40289 4.86488,9.78282 10.86611,9.78273 6.00123,1e-4 10.86622,-4.37984 10.86611,-9.78273 -0.004,-1.02906 -0.42174,-2.88157 0.19515,-2.02761 2.15267,2.97992 4.81386,4.06544 8.77521,4.06606 0.16684,-0.002 1.79607,-0.50179 1.71372,-0.36456 -0.66969,1.11605 -1.49838,2.05118 -1.71207,3.51843 -0.0513,0.76051 1.75854,4.4988 -0.14104,2.42629 -1.27881,-1.39523 -3.70831,-1.6109 -5.68561,-1.61494 -6.00123,-1e-4 -10.86621,4.37985 -10.8661,9.782735 -1.1e-4,5.40289 4.86488,9.78281 10.8661,9.78273 6.00124,8e-5 10.86623,-4.37984 10.86612,-9.78273 -0.002,-0.52129 -1.74351,-4.333675 0.0394,-1.72974 0.91837,1.34134 3.44115,1.5804 5.41501,1.58391 6.00123,1.1e-4 10.86622,-4.379835 10.86611,-9.782725 1.1e-4,-5.4029 -4.86488,-9.78284 -10.86611,-9.78274 -0.16684,0.002 -1.96794,0.78635 -1.12991,0.0403 1.02282,-0.91046 1.50019,-2.54166 1.50053,-3.85972 1.1e-4,-5.4029 -4.86488,-9.782843 -10.86611,-9.782733 z"
     id="path4413"
     inkscape:connector-curvature="0" />
  <path
     style="opacity:0.9;fill:#ffffff;fill-opacity:0;fill-rule:nonzero;stroke:#ffffff;stroke-width:0;stroke-linecap:butt;stroke-linejoin:bevel;stroke-miterlimit:4;stroke-dasharray:none;stroke-opacity:0.76262632"
     id="path6107"
     d="m -26.649898,29.407056 c -0.0241,-0.19965 -0.0266,-0.40126 -0.0306,-0.6021 -0.004,-0.24878 -0.005,-0.49762 -0.006,-0.74644 0.002,-0.13804 0.011,-0.27583 0.0166,-0.41375 0.003,-0.0804 0.004,-0.16085 0.004,-0.24129 -0.002,-0.0788 0.005,-0.14366 0.044,-0.21309 0.0508,-0.0864 0.12238,-0.15757 0.1952,-0.22536 0.0605,-0.0492 0.12488,-0.0932 0.19528,-0.12696 0.0407,-0.0209 0.0839,-0.0348 0.12811,-0.0462 0,0 0.1074,0.0144 0.1074,0.0144 v 0 c -0.0441,0.0104 -0.0873,0.0231 -0.12778,0.0441 -0.0706,0.0327 -0.13512,0.0752 -0.19611,0.12356 -0.0725,0.0666 -0.14395,0.13661 -0.19421,0.22214 -0.0393,0.0671 -0.0453,0.13063 -0.0438,0.20752 -4.2e-4,0.0806 -8.4e-4,0.16119 -0.005,0.24172 -0.006,0.13777 -0.0174,0.27533 -0.02,0.41327 -5.9e-4,0.24875 -6e-4,0.49752 0.004,0.74622 0.005,0.20031 0.008,0.40188 0.0373,0.60038 0,0 -0.10858,0.002 -0.10858,0.002 z"
     inkscape:connector-curvature="0" />
  <path
     style="opacity:0.9;fill:#ffffff;fill-opacity:0;fill-rule:nonzero;stroke:#ffffff;stroke-width:0;stroke-linecap:butt;stroke-linejoin:bevel;stroke-miterlimit:4;stroke-dasharray:none;stroke-opacity:0.76262632"
     id="path6109"
     d="m -26.073578,26.395556 c 0.12447,-0.0483 0.24381,-0.1095 0.36499,-0.16554 0.22271,-0.1089 0.45906,-0.18064 0.69621,-0.24977 0.20889,-0.06 0.42171,-0.10625 0.63538,-0.1457 0.074,-0.0145 0.14802,-0.0291 0.22245,-0.0415 0,0 0.10673,0.0152 0.10673,0.0152 v 0 c -0.0754,0.0118 -0.15025,0.0262 -0.22511,0.0409 -0.21462,0.0384 -0.42827,0.0846 -0.63802,0.14426 -0.23632,0.0687 -0.47229,0.13897 -0.69378,0.2485 -0.12016,0.0559 -0.23861,0.11584 -0.3605,0.16776 0,0 -0.10835,-0.0141 -0.10835,-0.0141 z"
     inkscape:connector-curvature="0" />
  <path
     style="fill:none;fill-rule:evenodd;stroke:#000000;stroke-width:7.86031342;stroke-linecap:round;stroke-linejoin:round;stroke-miterlimit:4;stroke-dasharray:none;stroke-opacity:1"
     d="M 52.964964,4.0621145 3.9300364,61.882085 52.964964,120.75651"
     id="path4248"
     inkscape:connector-curvature="0" />
  <path
     style="fill:none;fill-rule:evenodd;stroke:#000000;stroke-width:7.86031342;stroke-linecap:round;stroke-linejoin:round;stroke-miterlimit:4;stroke-dasharray:none;stroke-opacity:1"
     d="M 95.381245,3.9729405 144.41618,61.792913 95.381245,120.66733"
     id="path4248-0"
     inkscape:connector-curvature="0" />
</svg>
